# xmcd
#
# Track frame offsets:
# 150
# 15723
# 27170
# 43793
# 57336
# 72241
# 86321
# 105517
# 119401
# 132801
# 146623
# 162367
# 176549
# 193515
# 210458
# 228088
# 240193
# 259663
# 274443
# 287256
# 304800
# 321933
#
# Disc length: 4519 seconds
#
#
# Revision: 0
# Processed by: cddbd v1.5.1PL0 Copyright (c) Steve Scherf et al.
# Submitted via: FreeRIP 2.942 
#
DISCID=2c11a516
DTITLE=Batidao Sertanejo
DYEAR=2005
DGENRE=Country
TTITLE0=bebo pra carai
TTITLE1=crista de periu
TTITLE2=porque choras?
TTITLE3=peao de vitrine
TTITLE4=cachaça mulher e viola
TTITLE5=mulher boa
TTITLE6=se eu pudesse
TTITLE7=aonde tiver mulher nois vai
TTITLE8=abre a janela
TTITLE9=eu sou peao
TTITLE10=que pescar que nada
TTITLE11=vai so
TTITLE12=saoudade pica-pau
TTITLE13=pinga no peito
TTITLE14=a vida é só alegria
TTITLE15=oito segundos
TTITLE16=coração aventureiro
TTITLE17=vem sambar
TTITLE18=na sola da bota
TTITLE19=nóis trupica mais não cai
TTITLE20=pinga ni mim
TTITLE21=Roberto e elias filho
EXTD=Sertaneja
EXTT0=gino e geno
EXTT1=roberto e elias filho
EXTT2=Bruno e Marrone - Banda Calypso
EXTT3=gian e giovane
EXTT4=del frank e del rick
EXTT5=teodoro e sampaio
EXTT6=roberto e elias - gino e geno
EXTT7=cesar e paulinho
EXTT8=edson e hudson
EXTT9=luiz claudio e cristiano
EXTT10=bruno e marrone
EXTT11=ataide e alexandre
EXTT12=trio alto astral
EXTT13=roberto e elias filhos
EXTT14=máida e marcelo
EXTT15=hugo e thiago
EXTT16=mailon e maicon
EXTT17=guilherme e santiago
EXTT18=rio negro e solimões
EXTT19=rick e renner
EXTT20=teodoro e sampaio
EXTT21=
PLAYORDER=
